{
  "accessors": [
    {
      "bufferView": 2,
      "componentType": 5126,
      "count": 4206,
      "max": [
        37.160839080810547,
        64.660316467285156,
        26.223201751708984
      ],
      "min": [
        -37.160839080810547,
        -64.660308837890625,
        -26.223182678222656
      ],
      "type": "VEC3"
    },
    {
      "bufferView": 2,
      "byteOffset": 50472,
      "componentType": 5126,
      "count": 4206,
      "max": [
        0.99999654293060303,
        0.99933940172195435,
        0.99999028444290161
      ],
      "min": [
        -0.99999654293060303,
        -0.99830150604248047,
        -0.99999970197677612
      ],
      "type": "VEC3"
    },
    {
      "bufferView": 1,
      "componentType": 5126,
      "count": 4206,
      "max": [
        4.2248115539550781,
        4.2516269683837891
      ],
      "min": [
        -3.2248115539550781,
        -0.041616916656494141
      ],
      "type": "VEC2"
    },
    {
      "bufferView": 1,
      "byteOffset": 33648,
      "componentType": 5126,
      "count": 4206,
      "max": [
        0.66563189029693604,
        0.92513585090637207
      ],
      "min": [
        0.1783318817615509,
        0.077227979898452759
      ],
      "type": "VEC2"
    },
    {
      "bufferView": 0,
      "componentType": 5125,
      "count": 22032,
      "max": [
        4205
      ],
      "min": [
        0
      ],
      "type": "SCALAR"
    },
    {
      "bufferView": 2,
      "byteOffset": 100944,
      "componentType": 5126,
      "count": 4088,
      "max": [
        24.971935272216797,
        24.971935272216797,
        49.791599273681641
      ],
      "min": [
        -24.971935272216797,
        -24.971931457519531,
        -52.628746032714844
      ],
      "type": "VEC3"
    },
    {
      "bufferView": 2,
      "byteOffset": 150000,
      "componentType": 5126,
      "count": 4088,
      "max": [
        1,
        1,
        1
      ],
      "min": [
        -1,
        -1,
        -1
      ],
      "type": "VEC3"
    },
    {
      "bufferView": 1,
      "byteOffset": 67296,
      "componentType": 5126,
      "count": 4088,
      "max": [
        1.0277777910232544,
        1
      ],
      "min": [
        0.017636090517044067,
        0.00045261622290126979
      ],
      "type": "VEC2"
    },
    {
      "bufferView": 0,
      "byteOffset": 88128,
      "componentType": 5125,
      "count": 23760,
      "max": [
        4087
      ],
      "min": [
        0
      ],
      "type": "SCALAR"
    },
    {
      "bufferView": 2,
      "byteOffset": 199056,
      "componentType": 5126,
      "count": 511,
      "max": [
        3.2616360187530518,
        3.2616372108459473,
        42.211345672607422
      ],
      "min": [
        -3.2616362571716309,
        -3.2616376876831055,
        39.686225891113281
      ],
      "type": "VEC3"
    },
    {
      "bufferView": 2,
      "byteOffset": 205188,
      "componentType": 5126,
      "count": 511,
      "max": [
        0.94827485084533691,
        0.94827479124069214,
        -0.31744867563247681
      ],
      "min": [
        -0.94827479124069214,
        -0.94827461242675781,
        -0.89357966184616089
      ],
      "type": "VEC3"
    },
    {
      "bufferView": 1,
      "byteOffset": 100000,
      "componentType": 5126,
      "count": 511,
      "max": [
        1.0277777910232544,
        0.80000013113021851
      ],
      "min": [
        0.027777770534157753,
        0.80000001192092896
      ],
      "type": "VEC2"
    },
    {
      "bufferView": 0,
      "byteOffset": 183168,
      "componentType": 5125,
      "count": 2592,
      "max": [
        510
      ],
      "min": [
        0
      ],
      "type": "SCALAR"
    }
  ],
  "asset": {
    "extras": {
      "author": "Marcin Lubecki (https://sketchfab.com/Lubus)",
      "license": "SKETCHFAB Standard (https://sketchfab.com/licenses)",
      "source": "https://sketchfab.com/3d-models/tailors-mannequin-813019c9903e4566a42c046033530ede",
      "title": "Tailor's mannequin"
    },
    "generator": "Sketchfab-8.57.0",
    "version": "2.0"
  },
  "bufferViews": [
    {
      "buffer": 0,
      "byteLength": 193536,
      "byteOffset": 0,
      "name": "floatBufferViews",
      "target": 34963
    },
    {
      "buffer": 0,
      "byteLength": 104088,
      "byteOffset": 193536,
      "byteStride": 8,
      "name": "floatBufferViews",
      "target": 34962
    },
    {
      "buffer": 0,
      "byteLength": 211320,
      "byteOffset": 297624,
      "byteStride": 12,
      "name": "floatBufferViews",
      "target": 34962
    }
  ],
  "buffers": [
    {
      "byteLength": 508944,
      "uri": "scene.bin"
    }
  ],
  "images": [
    {
      "uri": "textures/Material_511_baseColor.jpeg"
    }
  ],
  "materials": [
    {
      "doubleSided": true,
      "emissiveFactor": [
        0,
        0,
        0
      ],
      "name": "Material_511",
      "pbrMetallicRoughness": {
        "baseColorFactor": [
          0.020007621951219513,
          0.020007621951219513,
          0.020007621951219513,
          1
        ],
        "baseColorTexture": {
          "index": 0,
          "texCoord": 0
        },
        "metallicFactor": 0,
        "roughnessFactor": 0.6629192073170731
      }
    },
    {
      "doubleSided": true,
      "name": "07_-_Default",
      "pbrMetallicRoughness": {
        "baseColorFactor": [
          1,
          1,
          1,
          1
        ],
        "metallicFactor": 1,
        "roughnessFactor": 0
      }
    },
    {
      "doubleSided": true,
      "name": "08_-_Default",
      "pbrMetallicRoughness": {
        "baseColorFactor": [
          1,
          1,
          1,
          1
        ],
        "metallicFactor": 0,
        "roughnessFactor": 0.59999999999999998
      }
    }
  ],
  "meshes": [
    {
      "name": "Box001_Material #511_0",
      "primitives": [
        {
          "attributes": {
            "NORMAL": 1,
            "POSITION": 0,
            "TEXCOORD_0": 2,
            "TEXCOORD_1": 3
          },
          "indices": 4,
          "material": 0,
          "mode": 4
        }
      ]
    },
    {
      "name": "Cylinder001_07 - Default_0",
      "primitives": [
        {
          "attributes": {
            "NORMAL": 6,
            "POSITION": 5,
            "TEXCOORD_0": 7
          },
          "indices": 8,
          "material": 1,
          "mode": 4
        }
      ]
    },
    {
      "name": "Cylinder001_08 - Default_0",
      "primitives": [
        {
          "attributes": {
            "NORMAL": 10,
            "POSITION": 9,
            "TEXCOORD_0": 11
          },
          "indices": 12,
          "material": 2,
          "mode": 4
        }
      ]
    }
  ],
  "nodes": [
    {
      "children": [
        1
      ],
      "name": "RootNode (gltf orientation matrix)",
      "rotation": [
        -0.70710678118654746,
        -0,
        -0,
        0.70710678118654757
      ]
    },
    {
      "children": [
        2
      ],
      "name": "RootNode (model correction matrix)"
    },
    {
      "children": [
        3
      ],
      "matrix": [
        1,
        0,
        0,
        0,
        0,
        0,
        1,
        0,
        0,
        -1,
        0,
        0,
        0,
        0,
        0,
        1
      ],
      "name": "Tailor's mannequin.fbx"
    },
    {
      "children": [
        4,
        6
      ],
      "name": "RootNode"
    },
    {
      "children": [
        5
      ],
      "matrix": [
        1,
        0,
        0,
        0,
        0,
        -0.99999994039535522,
        -1.1924879606100271e-08,
        0,
        0,
        1.1924879606100271e-08,
        -0.99999994039535522,
        0,
        -6.0749007388949394e-05,
        49.8907470703125,
        0.055011600255966187,
        1
      ],
      "name": "Box001"
    },
    {
      "mesh": 0,
      "name": "Box001_Material #511_0"
    },
    {
      "children": [
        7,
        8
      ],
      "matrix": [
        1,
        0,
        0,
        0,
        0,
        2.2204460492503131e-16,
        -1,
        0,
        0,
        1,
        2.2204460492503131e-16,
        0,
        -0.68230581283569336,
        -61.92230224609375,
        -1.306427001953125,
        1
      ],
      "name": "Cylinder001"
    },
    {
      "mesh": 1,
      "name": "Cylinder001_07 - Default_0"
    },
    {
      "mesh": 2,
      "name": "Cylinder001_08 - Default_0"
    }
  ],
  "samplers": [
    {
      "magFilter": 9729,
      "minFilter": 9987,
      "wrapS": 10497,
      "wrapT": 10497
    }
  ],
  "scene": 0,
  "scenes": [
    {
      "name": "OSG_Scene",
      "nodes": [
        0
      ]
    }
  ],
  "textures": [
    {
      "sampler": 0,
      "source": 0
    }
  ]
}

